[[0.055248,{"lines":{"0":[["                                                                                                                      ",{}]],"1":[["[01:13:36] ",{"fg":3,"bold":true}],["sdeb",{"fg":5,"bold":true}],[" ` ",{}],["~/Vidéos/ffmpeg-2.5.4-64bit-static",{"fg":4,"bold":true}],[" ",{}],[">",{"fg":6,"bold":true}],["                                                                ",{}]],"2":[["                                                                                                                      ",{}]],"3":[["                                                                                                                      ",{}]],"4":[["                                                                                                                      ",{}]],"5":[["                                                                                                                      ",{}]],"6":[["                                                                                                                      ",{}]],"7":[["                                                                                                                      ",{}]],"8":[["                                                                                                                      ",{}]],"9":[["                                                                                                                      ",{}]],"10":[["                                                                                                                      ",{}]],"11":[["                                                                                                                      ",{}]],"12":[["                                                                                                                      ",{}]],"13":[["                                                                                                                      ",{}]],"14":[["                                                                                                                      ",{}]],"15":[["                                                                                                                      ",{}]],"16":[["                                                                                                                      ",{}]],"17":[["                                                                                                                      ",{}]],"18":[["                                                                                                                      ",{}]],"19":[["                                                                                                                      ",{}]],"20":[["                                                                                                                      ",{}]],"21":[["                                                                                                                      ",{}]],"22":[["                                                                                                                      ",{}]],"23":[["                                                                                                                      ",{}]],"24":[["                                                                                                                      ",{}]],"25":[["                                                                                                                      ",{}]],"26":[["                                                                                                                      ",{}]],"27":[["                                                                                                                      ",{}]],"28":[["                                                                                                                      ",{}]],"29":[["                                                                                                                      ",{}]],"30":[["                                                                                                                      ",{}]],"31":[["                                                                                                                      ",{}]],"32":[["                                                                                                                      ",{}]],"33":[["                                                                                                                      ",{}]],"34":[["                                                                                                                      ",{}]],"35":[["                                                                                                                      ",{}]],"36":[["                                                                                                                      ",{}]],"37":[["                                                                                                                      ",{}]],"38":[["                                                                                                                      ",{}]],"39":[["                                                                                                                      ",{}]],"40":[["                                                                                                                      ",{}]],"41":[["                                                                                                                      ",{}]],"42":[["                                                                                                                      ",{}]],"43":[["                                                                                                                      ",{}]],"44":[["                                                                                                                      ",{}]],"45":[["                                                                                                                      ",{}]],"46":[["                                                                                                                      ",{}]],"47":[["                                                                                                                      ",{}]],"48":[["                                                                                                                      ",{}]],"49":[["                                                                                                                      ",{}]],"50":[["                                                                                                                      ",{}]],"51":[["                                                                                                                      ",{}]],"52":[["                                                                                                                      ",{}]],"53":[["                                                                                                                      ",{}]],"54":[["                                                                                                                      ",{}]],"55":[["                                                                                                                      ",{}]],"56":[["                                                                                                                      ",{}]],"57":[["                                                                                                                      ",{}]],"58":[["                                                                                                                      ",{}]],"59":[["                                                                                                                      ",{}]],"60":[["                                                                                                                      ",{}]],"61":[["                                                                                                                      ",{}]],"62":[["                                                                                                                      ",{}]],"63":[["                                                                                                                      ",{}]]},"cursor":{"x":55,"y":1,"visible":true}}],[1.244324,{}],[0.365362,{"lines":{"1":[["[01:13:36] ",{"fg":3,"bold":true}],["sdeb",{"fg":5,"bold":true}],[" ` ",{}],["~/Vidéos/ffmpeg-2.5.4-64bit-static",{"fg":4,"bold":true}],[" ",{}],[">",{"fg":6,"bold":true}],[" ./ffmpeg -y -i Kazam_scree_00000.avi -threads 8 -sn -an -c:v li",{}]],"2":[["bvpx -qmax 0 -qmin 0 -b:v 200M -slices 8  -lag-in-frames 25 -deadline realtime -pass 2 poop.webm                      ",{}]]},"cursor":{"x":96,"y":2}}],[0.6597190000000001,{"lines":{"1":[["[01:13:36] ",{"fg":3,"bold":true}],["sdeb",{"fg":5,"bold":true}],[" ` ",{}],["~/Vidéos/ffmpeg-2.5.4-64bit-static",{"fg":4,"bold":true}],[" ",{}],[">",{"fg":6,"bold":true}],["                                                                ",{}]],"2":[["                                                                                                                      ",{}]]},"cursor":{"x":55,"y":1}}],[0.539535,{"lines":{"1":[["[01:13:36] ",{"fg":3,"bold":true}],["sdeb",{"fg":5,"bold":true}],[" ` ",{}],["~/Vidéos/ffmpeg-2.5.4-64bit-static",{"fg":4,"bold":true}],[" ",{}],[">",{"fg":6,"bold":true}],[" l                                                              ",{}]]},"cursor":{"x":56}}],[0.124856,{"lines":{"1":[["[01:13:36] ",{"fg":3,"bold":true}],["sdeb",{"fg":5,"bold":true}],[" ` ",{}],["~/Vidéos/ffmpeg-2.5.4-64bit-static",{"fg":4,"bold":true}],[" ",{}],[">",{"fg":6,"bold":true}],[" ll                                                             ",{}]]},"cursor":{"x":57}}],[0.035119,{"lines":{"1":[["[01:13:36] ",{"fg":3,"bold":true}],["sdeb",{"fg":5,"bold":true}],[" ` ",{}],["~/Vidéos/ffmpeg-2.5.4-64bit-static",{"fg":4,"bold":true}],[" ",{}],[">",{"fg":6,"bold":true}],[" lla                                                            ",{}]]},"cursor":{"x":58}}],[0.180616,{"cursor":{"x":0,"y":2}}],[0.005204,{"lines":{"2":[["total 172M                                                                                                            ",{}]],"3":[["drwxr-xr-x 4 sdeb sdeb 4,0K mars   4 01:13 ",{}],[".",{"fg":4,"bold":true}],["                                                                          ",{}]],"4":[["drwxrwxrwx 4 sdeb sdeb 4,0K mars   4 00:17 ",{}],["..",{"fg":4,"bg":2}],["                                                                         ",{}]],"5":[["-rwxr-xr-x 1 sdeb sdeb  27M févr. 17 09:41 ",{}],["ffmpeg",{"fg":2,"bold":true}],["                                                                     ",{}]],"6":[["-rwxr-xr-x 1 sdeb sdeb  27M févr. 17 09:51 ",{}],["ffmpeg-10bit",{"fg":2,"bold":true}],["                                                               ",{}]],"7":[["-rw-r--r-- 1 sdeb sdeb  11K mars   4 01:12 ffmpeg2pass-0.log                                                          ",{}]],"8":[["-rwxr-xr-x 1 sdeb sdeb  27M févr. 17 09:41 ",{}],["ffprobe",{"fg":2,"bold":true}],["                                                                    ",{}]],"9":[["-rwxr-xr-x 1 sdeb sdeb  24M févr. 17 09:41 ",{}],["ffserver",{"fg":2,"bold":true}],["                                                                   ",{}]],"10":[["-rw------- 1 sdeb sdeb  67M mars   4 00:04 ",{}],["Kazam_scree_00000.avi",{"fg":5,"bold":true}],["                                                      ",{}]],"11":[["drwxr-xr-x 2 sdeb sdeb 4,0K févr. 17 09:44 ",{}],["manpages",{"fg":4,"bold":true}],["                                                                   ",{}]],"12":[["drwxr-xr-x 2 sdeb sdeb 4,0K févr. 17 09:41 ",{}],["presets",{"fg":4,"bold":true}],["                                                                    ",{}]],"13":[["-rwxr-xr-x 1 sdeb sdeb 815K févr. 17 09:41 ",{}],["qt-faststart",{"fg":2,"bold":true}],["                                                               ",{}]],"14":[["-rw-r--r-- 1 sdeb sdeb 2,3K févr. 17 09:51 readme.txt                                                                 ",{}]],"16":[["[01:13:39] ",{"fg":3,"bold":true}],["sdeb",{"fg":5,"bold":true}],[" ` ",{}],["~/Vidéos/ffmpeg-2.5.4-64bit-static",{"fg":4,"bold":true}],[" ",{}],[">",{"fg":6,"bold":true}],["                                                                ",{}]]},"cursor":{"x":55,"y":16}}],[1.124699,{"lines":{"16":[["[01:13:39] ",{"fg":3,"bold":true}],["sdeb",{"fg":5,"bold":true}],[" ` ",{}],["~/Vidéos/ffmpeg-2.5.4-64bit-static",{"fg":4,"bold":true}],[" ",{}],[">",{"fg":6,"bold":true}],[" lla                                                            ",{}]]},"cursor":{"x":58}}],[0.38538,{"lines":{"16":[["[01:13:39] ",{"fg":3,"bold":true}],["sdeb",{"fg":5,"bold":true}],[" ` ",{}],["~/Vidéos/ffmpeg-2.5.4-64bit-static",{"fg":4,"bold":true}],[" ",{}],[">",{"fg":6,"bold":true}],[" ./ffmpeg -y -i Kazam_scree_00000.avi -threads 8 -sn -an -c:v li",{}]],"17":[["bvpx -qmax 0 -qmin 0 -b:v 200M -slices 8  -lag-in-frames 25 -deadline realtime -pass 2 poop.webm                      ",{}]]},"cursor":{"x":96,"y":17}}],[0.934067,{"cursor":{"x":92}}],[0.175299,{"cursor":{"x":87}}],[0.415017,{"cursor":{"x":86}}],[0.410395,{"lines":{"17":[["bvpx -qmax 0 -qmin 0 -b:v 200M -slices 8  -lag-in-frames 25 -deadline realtime -pass  poop.webm                       ",{}]]},"cursor":{"x":85}}],[0.654779,{"lines":{"17":[["bvpx -qmax 0 -qmin 0 -b:v 200M -slices 8  -lag-in-frames 25 -deadline realtime -pass 1 poop.webm                      ",{}]]},"cursor":{"x":86}}],[1.434841,{"cursor":{"x":0,"y":18}}],[0.014523,{"lines":{"18":[["ffmpeg version 2.5.4-   http://johnvansickle.com/ffmpeg/    Copyright (c) 2000-2015 the FFmpeg developers             ",{}]],"19":[["  built on Feb 17 2015 03:40:54 with gcc 4.9.2 (Debian 4.9.2-10)                                                      ",{}]],"20":[["  configuration: --enable-gpl --enable-version3 --disable-shared --disable-debug --enable-runtime-cpudetect --enable-l",{}]],"21":[["ibmp3lame --enable-libx264 --enable-libx265 --enable-libwebp --enable-libspeex --enable-libvorbis --enable-libvpx --en",{}]],"22":[["able-libfreetype --enable-fontconfig --enable-libxvid --enable-libopencore-amrnb --enable-libopencore-amrwb --enable-l",{}]],"23":[["ibtheora --enable-libvo-aacenc --enable-libvo-amrwbenc --enable-gray --enable-libopenjpeg --enable-libopus --enable-li",{}]],"24":[["bass --enable-gnutls --enable-libvidstab --cc=gcc-4.9                                                                 ",{}]],"25":[["  libavutil      54. 15.100 / 54. 15.100                                                                              ",{}]],"26":[["  libavcodec     56. 13.100 / 56. 13.100                                                                              ",{}]],"27":[["  libavformat    56. 15.102 / 56. 15.102                                                                              ",{}]],"28":[["  libavdevice    56.  3.100 / 56.  3.100                                                                              ",{}]],"29":[["  libavfilter     5.  2.103 /  5.  2.103                                                                              ",{}]],"30":[["  libswscale      3.  1.101 /  3.  1.101                                                                              ",{}]],"31":[["  libswresample   1.  1.100 /  1.  1.100                                                                              ",{}]],"32":[["  libpostproc    53.  3.100 / 53.  3.100                                                                              ",{}]],"33":[["Input #0, avi, from 'Kazam_scree_00000.avi':                                                                          ",{}]],"34":[["  Duration: 00:00:02.11, start: 0.000000, bitrate: 265429 kb/s                                                        ",{}]],"35":[["    Stream #0:0: Video: rawvideo, bgra, 640x480, 270160 kb/s, 27 fps, 27 tbr, 27 tbn, 27 tbc                          ",{}]],"36":[["[libvpx @ 0x3e75120] ",{"fg":6,"bold":true}],["v1.3.0-5514-gc5718a7                                                                             ",{}]]},"cursor":{"y":37}}],[0.011985,{"lines":{"37":[["Output #0, webm, to 'poop.webm':                                                                                      ",{}]],"38":[["  Metadata:                                                                                                           ",{}]],"39":[["    encoder         : Lavf56.15.102                                                                                   ",{}]],"40":[["    Stream #0:0: Video: vp8 (libvpx), yuva420p, 640x480, q=0-0, pass 1, 200000 kb/s, 27 fps, 1k tbn, 27 tbc           ",{}]],"41":[["    Metadata:                                                                                                         ",{}]],"42":[["      encoder         : Lavc56.13.100 libvpx                                                                          ",{}]],"43":[["Stream mapping:                                                                                                       ",{}]],"44":[["  Stream #0:0 -> #0:0 (rawvideo (native) -> vp8 (libvpx))                                                             ",{}]],"45":[["Press [q] to stop, [?] for help                                                                                       ",{}]]},"cursor":{"y":46}}],[0.51183,{"lines":{"46":[["frame=   40 fps=0.0 q=0.0 size=       0kB time=00:00:00.00 bitrate=N/A                                                ",{}]]}}],[0.197246,{"lines":{"46":[["frame=   57 fps=0.0 q=0.0 Lsize=       0kB time=00:00:00.00 bitrate=N/A                                               ",{}]],"47":[["video:0kB audio:0kB subtitle:0kB other streams:0kB global headers:0kB muxing overhead: unknown                        ",{}]],"48":[["Output file is empty, nothing was encoded (check -ss / -t / -frames parameters if used)",{"fg":3}],["                               ",{}]]},"cursor":{"y":49}}],[0.001844,{"lines":{"50":[["[01:13:46] ",{"fg":3,"bold":true}],["sdeb",{"fg":5,"bold":true}],[" ` ",{}],["~/Vidéos/ffmpeg-2.5.4-64bit-static",{"fg":4,"bold":true}],[" ",{}],[">",{"fg":6,"bold":true}],["                                                                ",{}]]},"cursor":{"x":55,"y":50}}],[0.751431,{"lines":{"50":[["[01:13:46] ",{"fg":3,"bold":true}],["sdeb",{"fg":5,"bold":true}],[" ` ",{}],["~/Vidéos/ffmpeg-2.5.4-64bit-static",{"fg":4,"bold":true}],[" ",{}],[">",{"fg":6,"bold":true}],[" ./ffmpeg -y -i Kazam_scree_00000.avi -threads 8 -sn -an -c:v li",{}]],"51":[["bvpx -qmax 0 -qmin 0 -b:v 200M -slices 8  -lag-in-frames 25 -deadline realtime -pass 1 poop.webm                      ",{}]]},"cursor":{"x":96,"y":51}}],[0.580057,{"cursor":{"x":95}}],[0.245176,{"cursor":{"x":94}}],[0.154586,{"cursor":{"x":92}}],[0.230406,{"cursor":{"x":87}}],[0.449623,{"cursor":{"x":86}}],[0.315838,{"lines":{"51":[["bvpx -qmax 0 -qmin 0 -b:v 200M -slices 8  -lag-in-frames 25 -deadline realtime -pass  poop.webm                       ",{}]]},"cursor":{"x":85}}],[0.444968,{"lines":{"51":[["bvpx -qmax 0 -qmin 0 -b:v 200M -slices 8  -lag-in-frames 25 -deadline realtime -pass 2 poop.webm                      ",{}]]},"cursor":{"x":86}}],[2.031122,{"cursor":{"x":0,"y":52}}],[0.014004,{"lines":{"0":[["-rw-r--r-- 1 sdeb sdeb  11K mars   4 01:12 ffmpeg2pass-0.log                                                          ",{}]],"1":[["-rwxr-xr-x 1 sdeb sdeb  27M févr. 17 09:41 ",{}],["ffprobe",{"fg":2,"bold":true}],["                                                                    ",{}]],"2":[["-rwxr-xr-x 1 sdeb sdeb  24M févr. 17 09:41 ",{}],["ffserver",{"fg":2,"bold":true}],["                                                                   ",{}]],"3":[["-rw------- 1 sdeb sdeb  67M mars   4 00:04 ",{}],["Kazam_scree_00000.avi",{"fg":5,"bold":true}],["                                                      ",{}]],"4":[["drwxr-xr-x 2 sdeb sdeb 4,0K févr. 17 09:44 ",{}],["manpages",{"fg":4,"bold":true}],["                                                                   ",{}]],"5":[["drwxr-xr-x 2 sdeb sdeb 4,0K févr. 17 09:41 ",{}],["presets",{"fg":4,"bold":true}],["                                                                    ",{}]],"6":[["-rwxr-xr-x 1 sdeb sdeb 815K févr. 17 09:41 ",{}],["qt-faststart",{"fg":2,"bold":true}],["                                                               ",{}]],"7":[["-rw-r--r-- 1 sdeb sdeb 2,3K févr. 17 09:51 readme.txt                                                                 ",{}]],"8":[["                                                                                                                      ",{}]],"9":[["[01:13:39] ",{"fg":3,"bold":true}],["sdeb",{"fg":5,"bold":true}],[" ` ",{}],["~/Vidéos/ffmpeg-2.5.4-64bit-static",{"fg":4,"bold":true}],[" ",{}],[">",{"fg":6,"bold":true}],[" ./ffmpeg -y -i Kazam_scree_00000.avi -threads 8 -sn -an -c:v li",{}]],"10":[["bvpx -qmax 0 -qmin 0 -b:v 200M -slices 8  -lag-in-frames 25 -deadline realtime -pass 1 poop.webm                      ",{}]],"11":[["ffmpeg version 2.5.4-   http://johnvansickle.com/ffmpeg/    Copyright (c) 2000-2015 the FFmpeg developers             ",{}]],"12":[["  built on Feb 17 2015 03:40:54 with gcc 4.9.2 (Debian 4.9.2-10)                                                      ",{}]],"13":[["  configuration: --enable-gpl --enable-version3 --disable-shared --disable-debug --enable-runtime-cpudetect --enable-l",{}]],"14":[["ibmp3lame --enable-libx264 --enable-libx265 --enable-libwebp --enable-libspeex --enable-libvorbis --enable-libvpx --en",{}]],"15":[["able-libfreetype --enable-fontconfig --enable-libxvid --enable-libopencore-amrnb --enable-libopencore-amrwb --enable-l",{}]],"16":[["ibtheora --enable-libvo-aacenc --enable-libvo-amrwbenc --enable-gray --enable-libopenjpeg --enable-libopus --enable-li",{}]],"17":[["bass --enable-gnutls --enable-libvidstab --cc=gcc-4.9                                                                 ",{}]],"18":[["  libavutil      54. 15.100 / 54. 15.100                                                                              ",{}]],"19":[["  libavcodec     56. 13.100 / 56. 13.100                                                                              ",{}]],"20":[["  libavformat    56. 15.102 / 56. 15.102                                                                              ",{}]],"21":[["  libavdevice    56.  3.100 / 56.  3.100                                                                              ",{}]],"22":[["  libavfilter     5.  2.103 /  5.  2.103                                                                              ",{}]],"23":[["  libswscale      3.  1.101 /  3.  1.101                                                                              ",{}]],"24":[["  libswresample   1.  1.100 /  1.  1.100                                                                              ",{}]],"25":[["  libpostproc    53.  3.100 / 53.  3.100                                                                              ",{}]],"26":[["Input #0, avi, from 'Kazam_scree_00000.avi':                                                                          ",{}]],"27":[["  Duration: 00:00:02.11, start: 0.000000, bitrate: 265429 kb/s                                                        ",{}]],"28":[["    Stream #0:0: Video: rawvideo, bgra, 640x480, 270160 kb/s, 27 fps, 27 tbr, 27 tbn, 27 tbc                          ",{}]],"29":[["[libvpx @ 0x3e75120] ",{"fg":6,"bold":true}],["v1.3.0-5514-gc5718a7                                                                             ",{}]],"30":[["Output #0, webm, to 'poop.webm':                                                                                      ",{}]],"31":[["  Metadata:                                                                                                           ",{}]],"32":[["    encoder         : Lavf56.15.102                                                                                   ",{}]],"33":[["    Stream #0:0: Video: vp8 (libvpx), yuva420p, 640x480, q=0-0, pass 1, 200000 kb/s, 27 fps, 1k tbn, 27 tbc           ",{}]],"34":[["    Metadata:                                                                                                         ",{}]],"35":[["      encoder         : Lavc56.13.100 libvpx                                                                          ",{}]],"36":[["Stream mapping:                                                                                                       ",{}]],"37":[["  Stream #0:0 -> #0:0 (rawvideo (native) -> vp8 (libvpx))                                                             ",{}]],"38":[["Press [q] to stop, [?] for help                                                                                       ",{}]],"39":[["frame=   57 fps=0.0 q=0.0 Lsize=       0kB time=00:00:00.00 bitrate=N/A                                               ",{}]],"40":[["video:0kB audio:0kB subtitle:0kB other streams:0kB global headers:0kB muxing overhead: unknown                        ",{}]],"41":[["Output file is empty, nothing was encoded (check -ss / -t / -frames parameters if used)",{"fg":3}],["                               ",{}]],"42":[["                                                                                                                      ",{}]],"43":[["[01:13:46] ",{"fg":3,"bold":true}],["sdeb",{"fg":5,"bold":true}],[" ` ",{}],["~/Vidéos/ffmpeg-2.5.4-64bit-static",{"fg":4,"bold":true}],[" ",{}],[">",{"fg":6,"bold":true}],[" ./ffmpeg -y -i Kazam_scree_00000.avi -threads 8 -sn -an -c:v li",{}]],"44":[["bvpx -qmax 0 -qmin 0 -b:v 200M -slices 8  -lag-in-frames 25 -deadline realtime -pass 2 poop.webm                      ",{}]],"45":[["ffmpeg version 2.5.4-   http://johnvansickle.com/ffmpeg/    Copyright (c) 2000-2015 the FFmpeg developers             ",{}]],"46":[["  built on Feb 17 2015 03:40:54 with gcc 4.9.2 (Debian 4.9.2-10)                                                      ",{}]],"47":[["  configuration: --enable-gpl --enable-version3 --disable-shared --disable-debug --enable-runtime-cpudetect --enable-l",{}]],"48":[["ibmp3lame --enable-libx264 --enable-libx265 --enable-libwebp --enable-libspeex --enable-libvorbis --enable-libvpx --en",{}]],"49":[["able-libfreetype --enable-fontconfig --enable-libxvid --enable-libopencore-amrnb --enable-libopencore-amrwb --enable-l",{}]],"50":[["ibtheora --enable-libvo-aacenc --enable-libvo-amrwbenc --enable-gray --enable-libopenjpeg --enable-libopus --enable-li",{}]],"51":[["bass --enable-gnutls --enable-libvidstab --cc=gcc-4.9                                                                 ",{}]],"52":[["  libavutil      54. 15.100 / 54. 15.100                                                                              ",{}]],"53":[["  libavcodec     56. 13.100 / 56. 13.100                                                                              ",{}]],"54":[["  libavformat    56. 15.102 / 56. 15.102                                                                              ",{}]],"55":[["  libavdevice    56.  3.100 / 56.  3.100                                                                              ",{}]],"56":[["  libavfilter     5.  2.103 /  5.  2.103                                                                              ",{}]],"57":[["  libswscale      3.  1.101 /  3.  1.101                                                                              ",{}]],"58":[["  libswresample   1.  1.100 /  1.  1.100                                                                              ",{}]],"59":[["  libpostproc    53.  3.100 / 53.  3.100                                                                              ",{}]],"60":[["Input #0, avi, from 'Kazam_scree_00000.avi':                                                                          ",{}]],"61":[["  Duration: 00:00:02.11, start: 0.000000, bitrate: 265429 kb/s                                                        ",{}]],"62":[["    Stream #0:0: Video: rawvideo, bgra, 640x480, 270160 kb/s, 27 fps, 27 tbr, 27 tbn, 27 tbc                          ",{}]]},"cursor":{"y":63}}],[0.002769,{"lines":{"0":[["-rwxr-xr-x 1 sdeb sdeb  27M févr. 17 09:41 ",{}],["ffprobe",{"fg":2,"bold":true}],["                                                                    ",{}]],"1":[["-rwxr-xr-x 1 sdeb sdeb  24M févr. 17 09:41 ",{}],["ffserver",{"fg":2,"bold":true}],["                                                                   ",{}]],"2":[["-rw------- 1 sdeb sdeb  67M mars   4 00:04 ",{}],["Kazam_scree_00000.avi",{"fg":5,"bold":true}],["                                                      ",{}]],"3":[["drwxr-xr-x 2 sdeb sdeb 4,0K févr. 17 09:44 ",{}],["manpages",{"fg":4,"bold":true}],["                                                                   ",{}]],"4":[["drwxr-xr-x 2 sdeb sdeb 4,0K févr. 17 09:41 ",{}],["presets",{"fg":4,"bold":true}],["                                                                    ",{}]],"5":[["-rwxr-xr-x 1 sdeb sdeb 815K févr. 17 09:41 ",{}],["qt-faststart",{"fg":2,"bold":true}],["                                                               ",{}]],"6":[["-rw-r--r-- 1 sdeb sdeb 2,3K févr. 17 09:51 readme.txt                                                                 ",{}]],"7":[["                                                                                                                      ",{}]],"8":[["[01:13:39] ",{"fg":3,"bold":true}],["sdeb",{"fg":5,"bold":true}],[" ` ",{}],["~/Vidéos/ffmpeg-2.5.4-64bit-static",{"fg":4,"bold":true}],[" ",{}],[">",{"fg":6,"bold":true}],[" ./ffmpeg -y -i Kazam_scree_00000.avi -threads 8 -sn -an -c:v li",{}]],"9":[["bvpx -qmax 0 -qmin 0 -b:v 200M -slices 8  -lag-in-frames 25 -deadline realtime -pass 1 poop.webm                      ",{}]],"10":[["ffmpeg version 2.5.4-   http://johnvansickle.com/ffmpeg/    Copyright (c) 2000-2015 the FFmpeg developers             ",{}]],"11":[["  built on Feb 17 2015 03:40:54 with gcc 4.9.2 (Debian 4.9.2-10)                                                      ",{}]],"12":[["  configuration: --enable-gpl --enable-version3 --disable-shared --disable-debug --enable-runtime-cpudetect --enable-l",{}]],"13":[["ibmp3lame --enable-libx264 --enable-libx265 --enable-libwebp --enable-libspeex --enable-libvorbis --enable-libvpx --en",{}]],"14":[["able-libfreetype --enable-fontconfig --enable-libxvid --enable-libopencore-amrnb --enable-libopencore-amrwb --enable-l",{}]],"15":[["ibtheora --enable-libvo-aacenc --enable-libvo-amrwbenc --enable-gray --enable-libopenjpeg --enable-libopus --enable-li",{}]],"16":[["bass --enable-gnutls --enable-libvidstab --cc=gcc-4.9                                                                 ",{}]],"17":[["  libavutil      54. 15.100 / 54. 15.100                                                                              ",{}]],"18":[["  libavcodec     56. 13.100 / 56. 13.100                                                                              ",{}]],"19":[["  libavformat    56. 15.102 / 56. 15.102                                                                              ",{}]],"20":[["  libavdevice    56.  3.100 / 56.  3.100                                                                              ",{}]],"21":[["  libavfilter     5.  2.103 /  5.  2.103                                                                              ",{}]],"22":[["  libswscale      3.  1.101 /  3.  1.101                                                                              ",{}]],"23":[["  libswresample   1.  1.100 /  1.  1.100                                                                              ",{}]],"24":[["  libpostproc    53.  3.100 / 53.  3.100                                                                              ",{}]],"25":[["Input #0, avi, from 'Kazam_scree_00000.avi':                                                                          ",{}]],"26":[["  Duration: 00:00:02.11, start: 0.000000, bitrate: 265429 kb/s                                                        ",{}]],"27":[["    Stream #0:0: Video: rawvideo, bgra, 640x480, 270160 kb/s, 27 fps, 27 tbr, 27 tbn, 27 tbc                          ",{}]],"28":[["[libvpx @ 0x3e75120] ",{"fg":6,"bold":true}],["v1.3.0-5514-gc5718a7                                                                             ",{}]],"29":[["Output #0, webm, to 'poop.webm':                                                                                      ",{}]],"30":[["  Metadata:                                                                                                           ",{}]],"31":[["    encoder         : Lavf56.15.102                                                                                   ",{}]],"32":[["    Stream #0:0: Video: vp8 (libvpx), yuva420p, 640x480, q=0-0, pass 1, 200000 kb/s, 27 fps, 1k tbn, 27 tbc           ",{}]],"33":[["    Metadata:                                                                                                         ",{}]],"34":[["      encoder         : Lavc56.13.100 libvpx                                                                          ",{}]],"35":[["Stream mapping:                                                                                                       ",{}]],"36":[["  Stream #0:0 -> #0:0 (rawvideo (native) -> vp8 (libvpx))                                                             ",{}]],"37":[["Press [q] to stop, [?] for help                                                                                       ",{}]],"38":[["frame=   57 fps=0.0 q=0.0 Lsize=       0kB time=00:00:00.00 bitrate=N/A                                               ",{}]],"39":[["video:0kB audio:0kB subtitle:0kB other streams:0kB global headers:0kB muxing overhead: unknown                        ",{}]],"40":[["Output file is empty, nothing was encoded (check -ss / -t / -frames parameters if used)",{"fg":3}],["                               ",{}]],"41":[["                                                                                                                      ",{}]],"42":[["[01:13:46] ",{"fg":3,"bold":true}],["sdeb",{"fg":5,"bold":true}],[" ` ",{}],["~/Vidéos/ffmpeg-2.5.4-64bit-static",{"fg":4,"bold":true}],[" ",{}],[">",{"fg":6,"bold":true}],[" ./ffmpeg -y -i Kazam_scree_00000.avi -threads 8 -sn -an -c:v li",{}]],"43":[["bvpx -qmax 0 -qmin 0 -b:v 200M -slices 8  -lag-in-frames 25 -deadline realtime -pass 2 poop.webm                      ",{}]],"44":[["ffmpeg version 2.5.4-   http://johnvansickle.com/ffmpeg/    Copyright (c) 2000-2015 the FFmpeg developers             ",{}]],"45":[["  built on Feb 17 2015 03:40:54 with gcc 4.9.2 (Debian 4.9.2-10)                                                      ",{}]],"46":[["  configuration: --enable-gpl --enable-version3 --disable-shared --disable-debug --enable-runtime-cpudetect --enable-l",{}]],"47":[["ibmp3lame --enable-libx264 --enable-libx265 --enable-libwebp --enable-libspeex --enable-libvorbis --enable-libvpx --en",{}]],"48":[["able-libfreetype --enable-fontconfig --enable-libxvid --enable-libopencore-amrnb --enable-libopencore-amrwb --enable-l",{}]],"49":[["ibtheora --enable-libvo-aacenc --enable-libvo-amrwbenc --enable-gray --enable-libopenjpeg --enable-libopus --enable-li",{}]],"50":[["bass --enable-gnutls --enable-libvidstab --cc=gcc-4.9                                                                 ",{}]],"51":[["  libavutil      54. 15.100 / 54. 15.100                                                                              ",{}]],"52":[["  libavcodec     56. 13.100 / 56. 13.100                                                                              ",{}]],"53":[["  libavformat    56. 15.102 / 56. 15.102                                                                              ",{}]],"54":[["  libavdevice    56.  3.100 / 56.  3.100                                                                              ",{}]],"55":[["  libavfilter     5.  2.103 /  5.  2.103                                                                              ",{}]],"56":[["  libswscale      3.  1.101 /  3.  1.101                                                                              ",{}]],"57":[["  libswresample   1.  1.100 /  1.  1.100                                                                              ",{}]],"58":[["  libpostproc    53.  3.100 / 53.  3.100                                                                              ",{}]],"59":[["Input #0, avi, from 'Kazam_scree_00000.avi':                                                                          ",{}]],"60":[["  Duration: 00:00:02.11, start: 0.000000, bitrate: 265429 kb/s                                                        ",{}]],"61":[["    Stream #0:0: Video: rawvideo, bgra, 640x480, 270160 kb/s, 27 fps, 27 tbr, 27 tbn, 27 tbc                          ",{}]],"62":[["[libvpx @ 0x3a51120] ",{"fg":6,"bold":true}],["v1.3.0-5514-gc5718a7                                                                             ",{}]]}}],[0.0146,{"lines":{"0":[["bvpx -qmax 0 -qmin 0 -b:v 200M -slices 8  -lag-in-frames 25 -deadline realtime -pass 1 poop.webm                      ",{}]],"1":[["ffmpeg version 2.5.4-   http://johnvansickle.com/ffmpeg/    Copyright (c) 2000-2015 the FFmpeg developers             ",{}]],"2":[["  built on Feb 17 2015 03:40:54 with gcc 4.9.2 (Debian 4.9.2-10)                                                      ",{}]],"3":[["  configuration: --enable-gpl --enable-version3 --disable-shared --disable-debug --enable-runtime-cpudetect --enable-l",{}]],"4":[["ibmp3lame --enable-libx264 --enable-libx265 --enable-libwebp --enable-libspeex --enable-libvorbis --enable-libvpx --en",{}]],"5":[["able-libfreetype --enable-fontconfig --enable-libxvid --enable-libopencore-amrnb --enable-libopencore-amrwb --enable-l",{}]],"6":[["ibtheora --enable-libvo-aacenc --enable-libvo-amrwbenc --enable-gray --enable-libopenjpeg --enable-libopus --enable-li",{}]],"7":[["bass --enable-gnutls --enable-libvidstab --cc=gcc-4.9                                                                 ",{}]],"8":[["  libavutil      54. 15.100 / 54. 15.100                                                                              ",{}]],"9":[["  libavcodec     56. 13.100 / 56. 13.100                                                                              ",{}]],"10":[["  libavformat    56. 15.102 / 56. 15.102                                                                              ",{}]],"11":[["  libavdevice    56.  3.100 / 56.  3.100                                                                              ",{}]],"12":[["  libavfilter     5.  2.103 /  5.  2.103                                                                              ",{}]],"13":[["  libswscale      3.  1.101 /  3.  1.101                                                                              ",{}]],"14":[["  libswresample   1.  1.100 /  1.  1.100                                                                              ",{}]],"15":[["  libpostproc    53.  3.100 / 53.  3.100                                                                              ",{}]],"16":[["Input #0, avi, from 'Kazam_scree_00000.avi':                                                                          ",{}]],"17":[["  Duration: 00:00:02.11, start: 0.000000, bitrate: 265429 kb/s                                                        ",{}]],"18":[["    Stream #0:0: Video: rawvideo, bgra, 640x480, 270160 kb/s, 27 fps, 27 tbr, 27 tbn, 27 tbc                          ",{}]],"19":[["[libvpx @ 0x3e75120] ",{"fg":6,"bold":true}],["v1.3.0-5514-gc5718a7                                                                             ",{}]],"20":[["Output #0, webm, to 'poop.webm':                                                                                      ",{}]],"21":[["  Metadata:                                                                                                           ",{}]],"22":[["    encoder         : Lavf56.15.102                                                                                   ",{}]],"23":[["    Stream #0:0: Video: vp8 (libvpx), yuva420p, 640x480, q=0-0, pass 1, 200000 kb/s, 27 fps, 1k tbn, 27 tbc           ",{}]],"24":[["    Metadata:                                                                                                         ",{}]],"25":[["      encoder         : Lavc56.13.100 libvpx                                                                          ",{}]],"26":[["Stream mapping:                                                                                                       ",{}]],"27":[["  Stream #0:0 -> #0:0 (rawvideo (native) -> vp8 (libvpx))                                                             ",{}]],"28":[["Press [q] to stop, [?] for help                                                                                       ",{}]],"29":[["frame=   57 fps=0.0 q=0.0 Lsize=       0kB time=00:00:00.00 bitrate=N/A                                               ",{}]],"30":[["video:0kB audio:0kB subtitle:0kB other streams:0kB global headers:0kB muxing overhead: unknown                        ",{}]],"31":[["Output file is empty, nothing was encoded (check -ss / -t / -frames parameters if used)",{"fg":3}],["                               ",{}]],"32":[["                                                                                                                      ",{}]],"33":[["[01:13:46] ",{"fg":3,"bold":true}],["sdeb",{"fg":5,"bold":true}],[" ` ",{}],["~/Vidéos/ffmpeg-2.5.4-64bit-static",{"fg":4,"bold":true}],[" ",{}],[">",{"fg":6,"bold":true}],[" ./ffmpeg -y -i Kazam_scree_00000.avi -threads 8 -sn -an -c:v li",{}]],"34":[["bvpx -qmax 0 -qmin 0 -b:v 200M -slices 8  -lag-in-frames 25 -deadline realtime -pass 2 poop.webm                      ",{}]],"35":[["ffmpeg version 2.5.4-   http://johnvansickle.com/ffmpeg/    Copyright (c) 2000-2015 the FFmpeg developers             ",{}]],"36":[["  built on Feb 17 2015 03:40:54 with gcc 4.9.2 (Debian 4.9.2-10)                                                      ",{}]],"37":[["  configuration: --enable-gpl --enable-version3 --disable-shared --disable-debug --enable-runtime-cpudetect --enable-l",{}]],"38":[["ibmp3lame --enable-libx264 --enable-libx265 --enable-libwebp --enable-libspeex --enable-libvorbis --enable-libvpx --en",{}]],"39":[["able-libfreetype --enable-fontconfig --enable-libxvid --enable-libopencore-amrnb --enable-libopencore-amrwb --enable-l",{}]],"40":[["ibtheora --enable-libvo-aacenc --enable-libvo-amrwbenc --enable-gray --enable-libopenjpeg --enable-libopus --enable-li",{}]],"41":[["bass --enable-gnutls --enable-libvidstab --cc=gcc-4.9                                                                 ",{}]],"42":[["  libavutil      54. 15.100 / 54. 15.100                                                                              ",{}]],"43":[["  libavcodec     56. 13.100 / 56. 13.100                                                                              ",{}]],"44":[["  libavformat    56. 15.102 / 56. 15.102                                                                              ",{}]],"45":[["  libavdevice    56.  3.100 / 56.  3.100                                                                              ",{}]],"46":[["  libavfilter     5.  2.103 /  5.  2.103                                                                              ",{}]],"47":[["  libswscale      3.  1.101 /  3.  1.101                                                                              ",{}]],"48":[["  libswresample   1.  1.100 /  1.  1.100                                                                              ",{}]],"49":[["  libpostproc    53.  3.100 / 53.  3.100                                                                              ",{}]],"50":[["Input #0, avi, from 'Kazam_scree_00000.avi':                                                                          ",{}]],"51":[["  Duration: 00:00:02.11, start: 0.000000, bitrate: 265429 kb/s                                                        ",{}]],"52":[["    Stream #0:0: Video: rawvideo, bgra, 640x480, 270160 kb/s, 27 fps, 27 tbr, 27 tbn, 27 tbc                          ",{}]],"53":[["[libvpx @ 0x3a51120] ",{"fg":6,"bold":true}],["v1.3.0-5514-gc5718a7                                                                             ",{}]],"54":[["Output #0, webm, to 'poop.webm':                                                                                      ",{}]],"55":[["  Metadata:                                                                                                           ",{}]],"56":[["    encoder         : Lavf56.15.102                                                                                   ",{}]],"57":[["    Stream #0:0: Video: vp8 (libvpx), yuva420p, 640x480, q=0-0, pass 2, 200000 kb/s, 27 fps, 1k tbn, 27 tbc           ",{}]],"58":[["    Metadata:                                                                                                         ",{}]],"59":[["      encoder         : Lavc56.13.100 libvpx                                                                          ",{}]],"60":[["Stream mapping:                                                                                                       ",{}]],"61":[["  Stream #0:0 -> #0:0 (rawvideo (native) -> vp8 (libvpx))                                                             ",{}]],"62":[["Press [q] to stop, [?] for help                                                                                       ",{}]]}}],[0.618133,{"lines":{"63":[["frame=   32 fps=0.0 q=0.0 size=     891kB time=00:00:00.29 bitrate=24652.0kbits/s                                     ",{}]]}}],[0.580803,{"lines":{"63":[["frame=   40 fps= 36 q=0.0 size=    1788kB time=00:00:00.59 bitrate=24704.6kbits/s                                     ",{}]]}}],[0.518335,{"lines":{"63":[["frame=   47 fps= 29 q=0.0 size=    2597kB time=00:00:00.85 bitrate=24969.3kbits/s                                     ",{}]]}}],[0.59087,{"lines":{"63":[["frame=   54 fps= 24 q=0.0 size=    3422kB time=00:00:01.11 bitrate=25233.3kbits/s                                     ",{}]]}}],[2.198303,{"lines":{"0":[["  built on Feb 17 2015 03:40:54 with gcc 4.9.2 (Debian 4.9.2-10)                                                      ",{}]],"1":[["  configuration: --enable-gpl --enable-version3 --disable-shared --disable-debug --enable-runtime-cpudetect --enable-l",{}]],"2":[["ibmp3lame --enable-libx264 --enable-libx265 --enable-libwebp --enable-libspeex --enable-libvorbis --enable-libvpx --en",{}]],"3":[["able-libfreetype --enable-fontconfig --enable-libxvid --enable-libopencore-amrnb --enable-libopencore-amrwb --enable-l",{}]],"4":[["ibtheora --enable-libvo-aacenc --enable-libvo-amrwbenc --enable-gray --enable-libopenjpeg --enable-libopus --enable-li",{}]],"5":[["bass --enable-gnutls --enable-libvidstab --cc=gcc-4.9                                                                 ",{}]],"6":[["  libavutil      54. 15.100 / 54. 15.100                                                                              ",{}]],"7":[["  libavcodec     56. 13.100 / 56. 13.100                                                                              ",{}]],"8":[["  libavformat    56. 15.102 / 56. 15.102                                                                              ",{}]],"9":[["  libavdevice    56.  3.100 / 56.  3.100                                                                              ",{}]],"10":[["  libavfilter     5.  2.103 /  5.  2.103                                                                              ",{}]],"11":[["  libswscale      3.  1.101 /  3.  1.101                                                                              ",{}]],"12":[["  libswresample   1.  1.100 /  1.  1.100                                                                              ",{}]],"13":[["  libpostproc    53.  3.100 / 53.  3.100                                                                              ",{}]],"14":[["Input #0, avi, from 'Kazam_scree_00000.avi':                                                                          ",{}]],"15":[["  Duration: 00:00:02.11, start: 0.000000, bitrate: 265429 kb/s                                                        ",{}]],"16":[["    Stream #0:0: Video: rawvideo, bgra, 640x480, 270160 kb/s, 27 fps, 27 tbr, 27 tbn, 27 tbc                          ",{}]],"17":[["[libvpx @ 0x3e75120] ",{"fg":6,"bold":true}],["v1.3.0-5514-gc5718a7                                                                             ",{}]],"18":[["Output #0, webm, to 'poop.webm':                                                                                      ",{}]],"19":[["  Metadata:                                                                                                           ",{}]],"20":[["    encoder         : Lavf56.15.102                                                                                   ",{}]],"21":[["    Stream #0:0: Video: vp8 (libvpx), yuva420p, 640x480, q=0-0, pass 1, 200000 kb/s, 27 fps, 1k tbn, 27 tbc           ",{}]],"22":[["    Metadata:                                                                                                         ",{}]],"23":[["      encoder         : Lavc56.13.100 libvpx                                                                          ",{}]],"24":[["Stream mapping:                                                                                                       ",{}]],"25":[["  Stream #0:0 -> #0:0 (rawvideo (native) -> vp8 (libvpx))                                                             ",{}]],"26":[["Press [q] to stop, [?] for help                                                                                       ",{}]],"27":[["frame=   57 fps=0.0 q=0.0 Lsize=       0kB time=00:00:00.00 bitrate=N/A                                               ",{}]],"28":[["video:0kB audio:0kB subtitle:0kB other streams:0kB global headers:0kB muxing overhead: unknown                        ",{}]],"29":[["Output file is empty, nothing was encoded (check -ss / -t / -frames parameters if used)",{"fg":3}],["                               ",{}]],"30":[["                                                                                                                      ",{}]],"31":[["[01:13:46] ",{"fg":3,"bold":true}],["sdeb",{"fg":5,"bold":true}],[" ` ",{}],["~/Vidéos/ffmpeg-2.5.4-64bit-static",{"fg":4,"bold":true}],[" ",{}],[">",{"fg":6,"bold":true}],[" ./ffmpeg -y -i Kazam_scree_00000.avi -threads 8 -sn -an -c:v li",{}]],"32":[["bvpx -qmax 0 -qmin 0 -b:v 200M -slices 8  -lag-in-frames 25 -deadline realtime -pass 2 poop.webm                      ",{}]],"33":[["ffmpeg version 2.5.4-   http://johnvansickle.com/ffmpeg/    Copyright (c) 2000-2015 the FFmpeg developers             ",{}]],"34":[["  built on Feb 17 2015 03:40:54 with gcc 4.9.2 (Debian 4.9.2-10)                                                      ",{}]],"35":[["  configuration: --enable-gpl --enable-version3 --disable-shared --disable-debug --enable-runtime-cpudetect --enable-l",{}]],"36":[["ibmp3lame --enable-libx264 --enable-libx265 --enable-libwebp --enable-libspeex --enable-libvorbis --enable-libvpx --en",{}]],"37":[["able-libfreetype --enable-fontconfig --enable-libxvid --enable-libopencore-amrnb --enable-libopencore-amrwb --enable-l",{}]],"38":[["ibtheora --enable-libvo-aacenc --enable-libvo-amrwbenc --enable-gray --enable-libopenjpeg --enable-libopus --enable-li",{}]],"39":[["bass --enable-gnutls --enable-libvidstab --cc=gcc-4.9                                                                 ",{}]],"40":[["  libavutil      54. 15.100 / 54. 15.100                                                                              ",{}]],"41":[["  libavcodec     56. 13.100 / 56. 13.100                                                                              ",{}]],"42":[["  libavformat    56. 15.102 / 56. 15.102                                                                              ",{}]],"43":[["  libavdevice    56.  3.100 / 56.  3.100                                                                              ",{}]],"44":[["  libavfilter     5.  2.103 /  5.  2.103                                                                              ",{}]],"45":[["  libswscale      3.  1.101 /  3.  1.101                                                                              ",{}]],"46":[["  libswresample   1.  1.100 /  1.  1.100                                                                              ",{}]],"47":[["  libpostproc    53.  3.100 / 53.  3.100                                                                              ",{}]],"48":[["Input #0, avi, from 'Kazam_scree_00000.avi':                                                                          ",{}]],"49":[["  Duration: 00:00:02.11, start: 0.000000, bitrate: 265429 kb/s                                                        ",{}]],"50":[["    Stream #0:0: Video: rawvideo, bgra, 640x480, 270160 kb/s, 27 fps, 27 tbr, 27 tbn, 27 tbc                          ",{}]],"51":[["[libvpx @ 0x3a51120] ",{"fg":6,"bold":true}],["v1.3.0-5514-gc5718a7                                                                             ",{}]],"52":[["Output #0, webm, to 'poop.webm':                                                                                      ",{}]],"53":[["  Metadata:                                                                                                           ",{}]],"54":[["    encoder         : Lavf56.15.102                                                                                   ",{}]],"55":[["    Stream #0:0: Video: vp8 (libvpx), yuva420p, 640x480, q=0-0, pass 2, 200000 kb/s, 27 fps, 1k tbn, 27 tbc           ",{}]],"56":[["    Metadata:                                                                                                         ",{}]],"57":[["      encoder         : Lavc56.13.100 libvpx                                                                          ",{}]],"58":[["Stream mapping:                                                                                                       ",{}]],"59":[["  Stream #0:0 -> #0:0 (rawvideo (native) -> vp8 (libvpx))                                                             ",{}]],"60":[["Press [q] to stop, [?] for help                                                                                       ",{}]],"61":[["frame=   57 fps= 13 q=0.0 Lsize=    6395kB time=00:00:02.11 bitrate=24814.9kbits/s                                    ",{}]],"62":[["video:6393kB audio:0kB subtitle:0kB other streams:0kB global headers:0kB muxing overhead: 0.025724%                   ",{}]],"63":[["                                                                                                                      ",{}]]}}],[0.003021,{"lines":{"0":[["  configuration: --enable-gpl --enable-version3 --disable-shared --disable-debug --enable-runtime-cpudetect --enable-l",{}]],"1":[["ibmp3lame --enable-libx264 --enable-libx265 --enable-libwebp --enable-libspeex --enable-libvorbis --enable-libvpx --en",{}]],"2":[["able-libfreetype --enable-fontconfig --enable-libxvid --enable-libopencore-amrnb --enable-libopencore-amrwb --enable-l",{}]],"3":[["ibtheora --enable-libvo-aacenc --enable-libvo-amrwbenc --enable-gray --enable-libopenjpeg --enable-libopus --enable-li",{}]],"4":[["bass --enable-gnutls --enable-libvidstab --cc=gcc-4.9                                                                 ",{}]],"5":[["  libavutil      54. 15.100 / 54. 15.100                                                                              ",{}]],"6":[["  libavcodec     56. 13.100 / 56. 13.100                                                                              ",{}]],"7":[["  libavformat    56. 15.102 / 56. 15.102                                                                              ",{}]],"8":[["  libavdevice    56.  3.100 / 56.  3.100                                                                              ",{}]],"9":[["  libavfilter     5.  2.103 /  5.  2.103                                                                              ",{}]],"10":[["  libswscale      3.  1.101 /  3.  1.101                                                                              ",{}]],"11":[["  libswresample   1.  1.100 /  1.  1.100                                                                              ",{}]],"12":[["  libpostproc    53.  3.100 / 53.  3.100                                                                              ",{}]],"13":[["Input #0, avi, from 'Kazam_scree_00000.avi':                                                                          ",{}]],"14":[["  Duration: 00:00:02.11, start: 0.000000, bitrate: 265429 kb/s                                                        ",{}]],"15":[["    Stream #0:0: Video: rawvideo, bgra, 640x480, 270160 kb/s, 27 fps, 27 tbr, 27 tbn, 27 tbc                          ",{}]],"16":[["[libvpx @ 0x3e75120] ",{"fg":6,"bold":true}],["v1.3.0-5514-gc5718a7                                                                             ",{}]],"17":[["Output #0, webm, to 'poop.webm':                                                                                      ",{}]],"18":[["  Metadata:                                                                                                           ",{}]],"19":[["    encoder         : Lavf56.15.102                                                                                   ",{}]],"20":[["    Stream #0:0: Video: vp8 (libvpx), yuva420p, 640x480, q=0-0, pass 1, 200000 kb/s, 27 fps, 1k tbn, 27 tbc           ",{}]],"21":[["    Metadata:                                                                                                         ",{}]],"22":[["      encoder         : Lavc56.13.100 libvpx                                                                          ",{}]],"23":[["Stream mapping:                                                                                                       ",{}]],"24":[["  Stream #0:0 -> #0:0 (rawvideo (native) -> vp8 (libvpx))                                                             ",{}]],"25":[["Press [q] to stop, [?] for help                                                                                       ",{}]],"26":[["frame=   57 fps=0.0 q=0.0 Lsize=       0kB time=00:00:00.00 bitrate=N/A                                               ",{}]],"27":[["video:0kB audio:0kB subtitle:0kB other streams:0kB global headers:0kB muxing overhead: unknown                        ",{}]],"28":[["Output file is empty, nothing was encoded (check -ss / -t / -frames parameters if used)",{"fg":3}],["                               ",{}]],"29":[["                                                                                                                      ",{}]],"30":[["[01:13:46] ",{"fg":3,"bold":true}],["sdeb",{"fg":5,"bold":true}],[" ` ",{}],["~/Vidéos/ffmpeg-2.5.4-64bit-static",{"fg":4,"bold":true}],[" ",{}],[">",{"fg":6,"bold":true}],[" ./ffmpeg -y -i Kazam_scree_00000.avi -threads 8 -sn -an -c:v li",{}]],"31":[["bvpx -qmax 0 -qmin 0 -b:v 200M -slices 8  -lag-in-frames 25 -deadline realtime -pass 2 poop.webm                      ",{}]],"32":[["ffmpeg version 2.5.4-   http://johnvansickle.com/ffmpeg/    Copyright (c) 2000-2015 the FFmpeg developers             ",{}]],"33":[["  built on Feb 17 2015 03:40:54 with gcc 4.9.2 (Debian 4.9.2-10)                                                      ",{}]],"34":[["  configuration: --enable-gpl --enable-version3 --disable-shared --disable-debug --enable-runtime-cpudetect --enable-l",{}]],"35":[["ibmp3lame --enable-libx264 --enable-libx265 --enable-libwebp --enable-libspeex --enable-libvorbis --enable-libvpx --en",{}]],"36":[["able-libfreetype --enable-fontconfig --enable-libxvid --enable-libopencore-amrnb --enable-libopencore-amrwb --enable-l",{}]],"37":[["ibtheora --enable-libvo-aacenc --enable-libvo-amrwbenc --enable-gray --enable-libopenjpeg --enable-libopus --enable-li",{}]],"38":[["bass --enable-gnutls --enable-libvidstab --cc=gcc-4.9                                                                 ",{}]],"39":[["  libavutil      54. 15.100 / 54. 15.100                                                                              ",{}]],"40":[["  libavcodec     56. 13.100 / 56. 13.100                                                                              ",{}]],"41":[["  libavformat    56. 15.102 / 56. 15.102                                                                              ",{}]],"42":[["  libavdevice    56.  3.100 / 56.  3.100                                                                              ",{}]],"43":[["  libavfilter     5.  2.103 /  5.  2.103                                                                              ",{}]],"44":[["  libswscale      3.  1.101 /  3.  1.101                                                                              ",{}]],"45":[["  libswresample   1.  1.100 /  1.  1.100                                                                              ",{}]],"46":[["  libpostproc    53.  3.100 / 53.  3.100                                                                              ",{}]],"47":[["Input #0, avi, from 'Kazam_scree_00000.avi':                                                                          ",{}]],"48":[["  Duration: 00:00:02.11, start: 0.000000, bitrate: 265429 kb/s                                                        ",{}]],"49":[["    Stream #0:0: Video: rawvideo, bgra, 640x480, 270160 kb/s, 27 fps, 27 tbr, 27 tbn, 27 tbc                          ",{}]],"50":[["[libvpx @ 0x3a51120] ",{"fg":6,"bold":true}],["v1.3.0-5514-gc5718a7                                                                             ",{}]],"51":[["Output #0, webm, to 'poop.webm':                                                                                      ",{}]],"52":[["  Metadata:                                                                                                           ",{}]],"53":[["    encoder         : Lavf56.15.102                                                                                   ",{}]],"54":[["    Stream #0:0: Video: vp8 (libvpx), yuva420p, 640x480, q=0-0, pass 2, 200000 kb/s, 27 fps, 1k tbn, 27 tbc           ",{}]],"55":[["    Metadata:                                                                                                         ",{}]],"56":[["      encoder         : Lavc56.13.100 libvpx                                                                          ",{}]],"57":[["Stream mapping:                                                                                                       ",{}]],"58":[["  Stream #0:0 -> #0:0 (rawvideo (native) -> vp8 (libvpx))                                                             ",{}]],"59":[["Press [q] to stop, [?] for help                                                                                       ",{}]],"60":[["frame=   57 fps= 13 q=0.0 Lsize=    6395kB time=00:00:02.11 bitrate=24814.9kbits/s                                    ",{}]],"61":[["video:6393kB audio:0kB subtitle:0kB other streams:0kB global headers:0kB muxing overhead: 0.025724%                   ",{}]],"62":[["                                                                                                                      ",{}]],"63":[["[01:13:55] ",{"fg":3,"bold":true}],["sdeb",{"fg":5,"bold":true}],[" ` ",{}],["~/Vidéos/ffmpeg-2.5.4-64bit-static",{"fg":4,"bold":true}],[" ",{}],[">",{"fg":6,"bold":true}],[" ",{}],["                                                               ",{"fg":3,"bold":true}]]},"cursor":{"x":55}}],[2.879824,{"lines":{"63":[["[01:13:55] ",{"fg":3,"bold":true}],["sdeb",{"fg":5,"bold":true}],[" ` ",{}],["~/Vidéos/ffmpeg-2.5.4-64bit-static",{"fg":4,"bold":true}],[" ",{}],[">",{"fg":6,"bold":true}],[" l",{}],["                                                              ",{"fg":3,"bold":true}]]},"cursor":{"x":56}}],[0.104532,{"lines":{"63":[["[01:13:55] ",{"fg":3,"bold":true}],["sdeb",{"fg":5,"bold":true}],[" ` ",{}],["~/Vidéos/ffmpeg-2.5.4-64bit-static",{"fg":4,"bold":true}],[" ",{}],[">",{"fg":6,"bold":true}],[" ll",{}],["                                                             ",{"fg":3,"bold":true}]]},"cursor":{"x":57}}],[0.105056,{"lines":{"63":[["[01:13:55] ",{"fg":3,"bold":true}],["sdeb",{"fg":5,"bold":true}],[" ` ",{}],["~/Vidéos/ffmpeg-2.5.4-64bit-static",{"fg":4,"bold":true}],[" ",{}],[">",{"fg":6,"bold":true}],[" lla",{}],["                                                            ",{"fg":3,"bold":true}]]},"cursor":{"x":58}}],[0.200131,{"lines":{"0":[["ibmp3lame --enable-libx264 --enable-libx265 --enable-libwebp --enable-libspeex --enable-libvorbis --enable-libvpx --en",{}]],"1":[["able-libfreetype --enable-fontconfig --enable-libxvid --enable-libopencore-amrnb --enable-libopencore-amrwb --enable-l",{}]],"2":[["ibtheora --enable-libvo-aacenc --enable-libvo-amrwbenc --enable-gray --enable-libopenjpeg --enable-libopus --enable-li",{}]],"3":[["bass --enable-gnutls --enable-libvidstab --cc=gcc-4.9                                                                 ",{}]],"4":[["  libavutil      54. 15.100 / 54. 15.100                                                                              ",{}]],"5":[["  libavcodec     56. 13.100 / 56. 13.100                                                                              ",{}]],"6":[["  libavformat    56. 15.102 / 56. 15.102                                                                              ",{}]],"7":[["  libavdevice    56.  3.100 / 56.  3.100                                                                              ",{}]],"8":[["  libavfilter     5.  2.103 /  5.  2.103                                                                              ",{}]],"9":[["  libswscale      3.  1.101 /  3.  1.101                                                                              ",{}]],"10":[["  libswresample   1.  1.100 /  1.  1.100                                                                              ",{}]],"11":[["  libpostproc    53.  3.100 / 53.  3.100                                                                              ",{}]],"12":[["Input #0, avi, from 'Kazam_scree_00000.avi':                                                                          ",{}]],"13":[["  Duration: 00:00:02.11, start: 0.000000, bitrate: 265429 kb/s                                                        ",{}]],"14":[["    Stream #0:0: Video: rawvideo, bgra, 640x480, 270160 kb/s, 27 fps, 27 tbr, 27 tbn, 27 tbc                          ",{}]],"15":[["[libvpx @ 0x3e75120] ",{"fg":6,"bold":true}],["v1.3.0-5514-gc5718a7                                                                             ",{}]],"16":[["Output #0, webm, to 'poop.webm':                                                                                      ",{}]],"17":[["  Metadata:                                                                                                           ",{}]],"18":[["    encoder         : Lavf56.15.102                                                                                   ",{}]],"19":[["    Stream #0:0: Video: vp8 (libvpx), yuva420p, 640x480, q=0-0, pass 1, 200000 kb/s, 27 fps, 1k tbn, 27 tbc           ",{}]],"20":[["    Metadata:                                                                                                         ",{}]],"21":[["      encoder         : Lavc56.13.100 libvpx                                                                          ",{}]],"22":[["Stream mapping:                                                                                                       ",{}]],"23":[["  Stream #0:0 -> #0:0 (rawvideo (native) -> vp8 (libvpx))                                                             ",{}]],"24":[["Press [q] to stop, [?] for help                                                                                       ",{}]],"25":[["frame=   57 fps=0.0 q=0.0 Lsize=       0kB time=00:00:00.00 bitrate=N/A                                               ",{}]],"26":[["video:0kB audio:0kB subtitle:0kB other streams:0kB global headers:0kB muxing overhead: unknown                        ",{}]],"27":[["Output file is empty, nothing was encoded (check -ss / -t / -frames parameters if used)",{"fg":3}],["                               ",{}]],"28":[["                                                                                                                      ",{}]],"29":[["[01:13:46] ",{"fg":3,"bold":true}],["sdeb",{"fg":5,"bold":true}],[" ` ",{}],["~/Vidéos/ffmpeg-2.5.4-64bit-static",{"fg":4,"bold":true}],[" ",{}],[">",{"fg":6,"bold":true}],[" ./ffmpeg -y -i Kazam_scree_00000.avi -threads 8 -sn -an -c:v li",{}]],"30":[["bvpx -qmax 0 -qmin 0 -b:v 200M -slices 8  -lag-in-frames 25 -deadline realtime -pass 2 poop.webm                      ",{}]],"31":[["ffmpeg version 2.5.4-   http://johnvansickle.com/ffmpeg/    Copyright (c) 2000-2015 the FFmpeg developers             ",{}]],"32":[["  built on Feb 17 2015 03:40:54 with gcc 4.9.2 (Debian 4.9.2-10)                                                      ",{}]],"33":[["  configuration: --enable-gpl --enable-version3 --disable-shared --disable-debug --enable-runtime-cpudetect --enable-l",{}]],"34":[["ibmp3lame --enable-libx264 --enable-libx265 --enable-libwebp --enable-libspeex --enable-libvorbis --enable-libvpx --en",{}]],"35":[["able-libfreetype --enable-fontconfig --enable-libxvid --enable-libopencore-amrnb --enable-libopencore-amrwb --enable-l",{}]],"36":[["ibtheora --enable-libvo-aacenc --enable-libvo-amrwbenc --enable-gray --enable-libopenjpeg --enable-libopus --enable-li",{}]],"37":[["bass --enable-gnutls --enable-libvidstab --cc=gcc-4.9                                                                 ",{}]],"38":[["  libavutil      54. 15.100 / 54. 15.100                                                                              ",{}]],"39":[["  libavcodec     56. 13.100 / 56. 13.100                                                                              ",{}]],"40":[["  libavformat    56. 15.102 / 56. 15.102                                                                              ",{}]],"41":[["  libavdevice    56.  3.100 / 56.  3.100                                                                              ",{}]],"42":[["  libavfilter     5.  2.103 /  5.  2.103                                                                              ",{}]],"43":[["  libswscale      3.  1.101 /  3.  1.101                                                                              ",{}]],"44":[["  libswresample   1.  1.100 /  1.  1.100                                                                              ",{}]],"45":[["  libpostproc    53.  3.100 / 53.  3.100                                                                              ",{}]],"46":[["Input #0, avi, from 'Kazam_scree_00000.avi':                                                                          ",{}]],"47":[["  Duration: 00:00:02.11, start: 0.000000, bitrate: 265429 kb/s                                                        ",{}]],"48":[["    Stream #0:0: Video: rawvideo, bgra, 640x480, 270160 kb/s, 27 fps, 27 tbr, 27 tbn, 27 tbc                          ",{}]],"49":[["[libvpx @ 0x3a51120] ",{"fg":6,"bold":true}],["v1.3.0-5514-gc5718a7                                                                             ",{}]],"50":[["Output #0, webm, to 'poop.webm':                                                                                      ",{}]],"51":[["  Metadata:                                                                                                           ",{}]],"52":[["    encoder         : Lavf56.15.102                                                                                   ",{}]],"53":[["    Stream #0:0: Video: vp8 (libvpx), yuva420p, 640x480, q=0-0, pass 2, 200000 kb/s, 27 fps, 1k tbn, 27 tbc           ",{}]],"54":[["    Metadata:                                                                                                         ",{}]],"55":[["      encoder         : Lavc56.13.100 libvpx                                                                          ",{}]],"56":[["Stream mapping:                                                                                                       ",{}]],"57":[["  Stream #0:0 -> #0:0 (rawvideo (native) -> vp8 (libvpx))                                                             ",{}]],"58":[["Press [q] to stop, [?] for help                                                                                       ",{}]],"59":[["frame=   57 fps= 13 q=0.0 Lsize=    6395kB time=00:00:02.11 bitrate=24814.9kbits/s                                    ",{}]],"60":[["video:6393kB audio:0kB subtitle:0kB other streams:0kB global headers:0kB muxing overhead: 0.025724%                   ",{}]],"61":[["                                                                                                                      ",{}]],"62":[["[01:13:55] ",{"fg":3,"bold":true}],["sdeb",{"fg":5,"bold":true}],[" ` ",{}],["~/Vidéos/ffmpeg-2.5.4-64bit-static",{"fg":4,"bold":true}],[" ",{}],[">",{"fg":6,"bold":true}],[" lla",{}],["                                                            ",{"fg":3,"bold":true}]],"63":[["                                                                                                                      ",{}]]},"cursor":{"x":0}}],[0.002902,{"lines":{"0":[["[libvpx @ 0x3e75120] ",{"fg":6,"bold":true}],["v1.3.0-5514-gc5718a7                                                                             ",{}]],"1":[["Output #0, webm, to 'poop.webm':                                                                                      ",{}]],"2":[["  Metadata:                                                                                                           ",{}]],"3":[["    encoder         : Lavf56.15.102                                                                                   ",{}]],"4":[["    Stream #0:0: Video: vp8 (libvpx), yuva420p, 640x480, q=0-0, pass 1, 200000 kb/s, 27 fps, 1k tbn, 27 tbc           ",{}]],"5":[["    Metadata:                                                                                                         ",{}]],"6":[["      encoder         : Lavc56.13.100 libvpx                                                                          ",{}]],"7":[["Stream mapping:                                                                                                       ",{}]],"8":[["  Stream #0:0 -> #0:0 (rawvideo (native) -> vp8 (libvpx))                                                             ",{}]],"9":[["Press [q] to stop, [?] for help                                                                                       ",{}]],"10":[["frame=   57 fps=0.0 q=0.0 Lsize=       0kB time=00:00:00.00 bitrate=N/A                                               ",{}]],"11":[["video:0kB audio:0kB subtitle:0kB other streams:0kB global headers:0kB muxing overhead: unknown                        ",{}]],"12":[["Output file is empty, nothing was encoded (check -ss / -t / -frames parameters if used)",{"fg":3}],["                               ",{}]],"13":[["                                                                                                                      ",{}]],"14":[["[01:13:46] ",{"fg":3,"bold":true}],["sdeb",{"fg":5,"bold":true}],[" ` ",{}],["~/Vidéos/ffmpeg-2.5.4-64bit-static",{"fg":4,"bold":true}],[" ",{}],[">",{"fg":6,"bold":true}],[" ./ffmpeg -y -i Kazam_scree_00000.avi -threads 8 -sn -an -c:v li",{}]],"15":[["bvpx -qmax 0 -qmin 0 -b:v 200M -slices 8  -lag-in-frames 25 -deadline realtime -pass 2 poop.webm                      ",{}]],"16":[["ffmpeg version 2.5.4-   http://johnvansickle.com/ffmpeg/    Copyright (c) 2000-2015 the FFmpeg developers             ",{}]],"17":[["  built on Feb 17 2015 03:40:54 with gcc 4.9.2 (Debian 4.9.2-10)                                                      ",{}]],"18":[["  configuration: --enable-gpl --enable-version3 --disable-shared --disable-debug --enable-runtime-cpudetect --enable-l",{}]],"19":[["ibmp3lame --enable-libx264 --enable-libx265 --enable-libwebp --enable-libspeex --enable-libvorbis --enable-libvpx --en",{}]],"20":[["able-libfreetype --enable-fontconfig --enable-libxvid --enable-libopencore-amrnb --enable-libopencore-amrwb --enable-l",{}]],"21":[["ibtheora --enable-libvo-aacenc --enable-libvo-amrwbenc --enable-gray --enable-libopenjpeg --enable-libopus --enable-li",{}]],"22":[["bass --enable-gnutls --enable-libvidstab --cc=gcc-4.9                                                                 ",{}]],"23":[["  libavutil      54. 15.100 / 54. 15.100                                                                              ",{}]],"24":[["  libavcodec     56. 13.100 / 56. 13.100                                                                              ",{}]],"25":[["  libavformat    56. 15.102 / 56. 15.102                                                                              ",{}]],"26":[["  libavdevice    56.  3.100 / 56.  3.100                                                                              ",{}]],"27":[["  libavfilter     5.  2.103 /  5.  2.103                                                                              ",{}]],"28":[["  libswscale      3.  1.101 /  3.  1.101                                                                              ",{}]],"29":[["  libswresample   1.  1.100 /  1.  1.100                                                                              ",{}]],"30":[["  libpostproc    53.  3.100 / 53.  3.100                                                                              ",{}]],"31":[["Input #0, avi, from 'Kazam_scree_00000.avi':                                                                          ",{}]],"32":[["  Duration: 00:00:02.11, start: 0.000000, bitrate: 265429 kb/s                                                        ",{}]],"33":[["    Stream #0:0: Video: rawvideo, bgra, 640x480, 270160 kb/s, 27 fps, 27 tbr, 27 tbn, 27 tbc                          ",{}]],"34":[["[libvpx @ 0x3a51120] ",{"fg":6,"bold":true}],["v1.3.0-5514-gc5718a7                                                                             ",{}]],"35":[["Output #0, webm, to 'poop.webm':                                                                                      ",{}]],"36":[["  Metadata:                                                                                                           ",{}]],"37":[["    encoder         : Lavf56.15.102                                                                                   ",{}]],"38":[["    Stream #0:0: Video: vp8 (libvpx), yuva420p, 640x480, q=0-0, pass 2, 200000 kb/s, 27 fps, 1k tbn, 27 tbc           ",{}]],"39":[["    Metadata:                                                                                                         ",{}]],"40":[["      encoder         : Lavc56.13.100 libvpx                                                                          ",{}]],"41":[["Stream mapping:                                                                                                       ",{}]],"42":[["  Stream #0:0 -> #0:0 (rawvideo (native) -> vp8 (libvpx))                                                             ",{}]],"43":[["Press [q] to stop, [?] for help                                                                                       ",{}]],"44":[["frame=   57 fps= 13 q=0.0 Lsize=    6395kB time=00:00:02.11 bitrate=24814.9kbits/s                                    ",{}]],"45":[["video:6393kB audio:0kB subtitle:0kB other streams:0kB global headers:0kB muxing overhead: 0.025724%                   ",{}]],"46":[["                                                                                                                      ",{}]],"47":[["[01:13:55] ",{"fg":3,"bold":true}],["sdeb",{"fg":5,"bold":true}],[" ` ",{}],["~/Vidéos/ffmpeg-2.5.4-64bit-static",{"fg":4,"bold":true}],[" ",{}],[">",{"fg":6,"bold":true}],[" lla",{}],["                                                            ",{"fg":3,"bold":true}]],"48":[["total 179M                                                                                                            ",{}]],"49":[["drwxr-xr-x 4 sdeb sdeb 4,0K mars   4 01:13 ",{}],[".",{"fg":4,"bold":true}],["                                                                          ",{}]],"50":[["drwxrwxrwx 4 sdeb sdeb 4,0K mars   4 00:17 ",{}],["..",{"fg":4,"bg":2}],["                                                                         ",{}]],"51":[["-rwxr-xr-x 1 sdeb sdeb  27M févr. 17 09:41 ",{}],["ffmpeg",{"fg":2,"bold":true}],["                                                                     ",{}]],"52":[["-rwxr-xr-x 1 sdeb sdeb  27M févr. 17 09:51 ",{}],["ffmpeg-10bit",{"fg":2,"bold":true}],["                                                               ",{}]],"53":[["-rw-r--r-- 1 sdeb sdeb  11K mars   4 01:13 ffmpeg2pass-0.log                                                          ",{}]],"54":[["-rwxr-xr-x 1 sdeb sdeb  27M févr. 17 09:41 ",{}],["ffprobe",{"fg":2,"bold":true}],["                                                                    ",{}]],"55":[["-rwxr-xr-x 1 sdeb sdeb  24M févr. 17 09:41 ",{}],["ffserver",{"fg":2,"bold":true}],["                                                                   ",{}]],"56":[["-rw------- 1 sdeb sdeb  67M mars   4 00:04 ",{}],["Kazam_scree_00000.avi",{"fg":5,"bold":true}],["                                                      ",{}]],"57":[["drwxr-xr-x 2 sdeb sdeb 4,0K févr. 17 09:44 ",{}],["manpages",{"fg":4,"bold":true}],["                                                                   ",{}]],"58":[["-rw-r--r-- 1 sdeb sdeb 6,3M mars   4 01:13 ",{}],["poop.webm",{"fg":5,"bold":true}],["                                                                  ",{}]],"59":[["drwxr-xr-x 2 sdeb sdeb 4,0K févr. 17 09:41 ",{}],["presets",{"fg":4,"bold":true}],["                                                                    ",{}]],"60":[["-rwxr-xr-x 1 sdeb sdeb 815K févr. 17 09:41 ",{}],["qt-faststart",{"fg":2,"bold":true}],["                                                               ",{}]],"61":[["-rw-r--r-- 1 sdeb sdeb 2,3K févr. 17 09:51 readme.txt                                                                 ",{}]],"62":[["                                                                                                                      ",{}]],"63":[["[01:13:59] ",{"fg":3,"bold":true}],["sdeb",{"fg":5,"bold":true}],[" ` ",{}],["~/Vidéos/ffmpeg-2.5.4-64bit-static",{"fg":4,"bold":true}],[" ",{}],[">",{"fg":6,"bold":true}],[" ",{}],["                                                               ",{"fg":3,"bold":true}]]},"cursor":{"x":55}}],[3.012955,{"lines":{"0":[["Output #0, webm, to 'poop.webm':                                                                                      ",{}]],"1":[["  Metadata:                                                                                                           ",{}]],"2":[["    encoder         : Lavf56.15.102                                                                                   ",{}]],"3":[["    Stream #0:0: Video: vp8 (libvpx), yuva420p, 640x480, q=0-0, pass 1, 200000 kb/s, 27 fps, 1k tbn, 27 tbc           ",{}]],"4":[["    Metadata:                                                                                                         ",{}]],"5":[["      encoder         : Lavc56.13.100 libvpx                                                                          ",{}]],"6":[["Stream mapping:                                                                                                       ",{}]],"7":[["  Stream #0:0 -> #0:0 (rawvideo (native) -> vp8 (libvpx))                                                             ",{}]],"8":[["Press [q] to stop, [?] for help                                                                                       ",{}]],"9":[["frame=   57 fps=0.0 q=0.0 Lsize=       0kB time=00:00:00.00 bitrate=N/A                                               ",{}]],"10":[["video:0kB audio:0kB subtitle:0kB other streams:0kB global headers:0kB muxing overhead: unknown                        ",{}]],"11":[["Output file is empty, nothing was encoded (check -ss / -t / -frames parameters if used)",{"fg":3}],["                               ",{}]],"12":[["                                                                                                                      ",{}]],"13":[["[01:13:46] ",{"fg":3,"bold":true}],["sdeb",{"fg":5,"bold":true}],[" ` ",{}],["~/Vidéos/ffmpeg-2.5.4-64bit-static",{"fg":4,"bold":true}],[" ",{}],[">",{"fg":6,"bold":true}],[" ./ffmpeg -y -i Kazam_scree_00000.avi -threads 8 -sn -an -c:v li",{}]],"14":[["bvpx -qmax 0 -qmin 0 -b:v 200M -slices 8  -lag-in-frames 25 -deadline realtime -pass 2 poop.webm                      ",{}]],"15":[["ffmpeg version 2.5.4-   http://johnvansickle.com/ffmpeg/    Copyright (c) 2000-2015 the FFmpeg developers             ",{}]],"16":[["  built on Feb 17 2015 03:40:54 with gcc 4.9.2 (Debian 4.9.2-10)                                                      ",{}]],"17":[["  configuration: --enable-gpl --enable-version3 --disable-shared --disable-debug --enable-runtime-cpudetect --enable-l",{}]],"18":[["ibmp3lame --enable-libx264 --enable-libx265 --enable-libwebp --enable-libspeex --enable-libvorbis --enable-libvpx --en",{}]],"19":[["able-libfreetype --enable-fontconfig --enable-libxvid --enable-libopencore-amrnb --enable-libopencore-amrwb --enable-l",{}]],"20":[["ibtheora --enable-libvo-aacenc --enable-libvo-amrwbenc --enable-gray --enable-libopenjpeg --enable-libopus --enable-li",{}]],"21":[["bass --enable-gnutls --enable-libvidstab --cc=gcc-4.9                                                                 ",{}]],"22":[["  libavutil      54. 15.100 / 54. 15.100                                                                              ",{}]],"23":[["  libavcodec     56. 13.100 / 56. 13.100                                                                              ",{}]],"24":[["  libavformat    56. 15.102 / 56. 15.102                                                                              ",{}]],"25":[["  libavdevice    56.  3.100 / 56.  3.100                                                                              ",{}]],"26":[["  libavfilter     5.  2.103 /  5.  2.103                                                                              ",{}]],"27":[["  libswscale      3.  1.101 /  3.  1.101                                                                              ",{}]],"28":[["  libswresample   1.  1.100 /  1.  1.100                                                                              ",{}]],"29":[["  libpostproc    53.  3.100 / 53.  3.100                                                                              ",{}]],"30":[["Input #0, avi, from 'Kazam_scree_00000.avi':                                                                          ",{}]],"31":[["  Duration: 00:00:02.11, start: 0.000000, bitrate: 265429 kb/s                                                        ",{}]],"32":[["    Stream #0:0: Video: rawvideo, bgra, 640x480, 270160 kb/s, 27 fps, 27 tbr, 27 tbn, 27 tbc                          ",{}]],"33":[["[libvpx @ 0x3a51120] ",{"fg":6,"bold":true}],["v1.3.0-5514-gc5718a7                                                                             ",{}]],"34":[["Output #0, webm, to 'poop.webm':                                                                                      ",{}]],"35":[["  Metadata:                                                                                                           ",{}]],"36":[["    encoder         : Lavf56.15.102                                                                                   ",{}]],"37":[["    Stream #0:0: Video: vp8 (libvpx), yuva420p, 640x480, q=0-0, pass 2, 200000 kb/s, 27 fps, 1k tbn, 27 tbc           ",{}]],"38":[["    Metadata:                                                                                                         ",{}]],"39":[["      encoder         : Lavc56.13.100 libvpx                                                                          ",{}]],"40":[["Stream mapping:                                                                                                       ",{}]],"41":[["  Stream #0:0 -> #0:0 (rawvideo (native) -> vp8 (libvpx))                                                             ",{}]],"42":[["Press [q] to stop, [?] for help                                                                                       ",{}]],"43":[["frame=   57 fps= 13 q=0.0 Lsize=    6395kB time=00:00:02.11 bitrate=24814.9kbits/s                                    ",{}]],"44":[["video:6393kB audio:0kB subtitle:0kB other streams:0kB global headers:0kB muxing overhead: 0.025724%                   ",{}]],"45":[["                                                                                                                      ",{}]],"46":[["[01:13:55] ",{"fg":3,"bold":true}],["sdeb",{"fg":5,"bold":true}],[" ` ",{}],["~/Vidéos/ffmpeg-2.5.4-64bit-static",{"fg":4,"bold":true}],[" ",{}],[">",{"fg":6,"bold":true}],[" lla",{}],["                                                            ",{"fg":3,"bold":true}]],"47":[["total 179M                                                                                                            ",{}]],"48":[["drwxr-xr-x 4 sdeb sdeb 4,0K mars   4 01:13 ",{}],[".",{"fg":4,"bold":true}],["                                                                          ",{}]],"49":[["drwxrwxrwx 4 sdeb sdeb 4,0K mars   4 00:17 ",{}],["..",{"fg":4,"bg":2}],["                                                                         ",{}]],"50":[["-rwxr-xr-x 1 sdeb sdeb  27M févr. 17 09:41 ",{}],["ffmpeg",{"fg":2,"bold":true}],["                                                                     ",{}]],"51":[["-rwxr-xr-x 1 sdeb sdeb  27M févr. 17 09:51 ",{}],["ffmpeg-10bit",{"fg":2,"bold":true}],["                                                               ",{}]],"52":[["-rw-r--r-- 1 sdeb sdeb  11K mars   4 01:13 ffmpeg2pass-0.log                                                          ",{}]],"53":[["-rwxr-xr-x 1 sdeb sdeb  27M févr. 17 09:41 ",{}],["ffprobe",{"fg":2,"bold":true}],["                                                                    ",{}]],"54":[["-rwxr-xr-x 1 sdeb sdeb  24M févr. 17 09:41 ",{}],["ffserver",{"fg":2,"bold":true}],["                                                                   ",{}]],"55":[["-rw------- 1 sdeb sdeb  67M mars   4 00:04 ",{}],["Kazam_scree_00000.avi",{"fg":5,"bold":true}],["                                                      ",{}]],"56":[["drwxr-xr-x 2 sdeb sdeb 4,0K févr. 17 09:44 ",{}],["manpages",{"fg":4,"bold":true}],["                                                                   ",{}]],"57":[["-rw-r--r-- 1 sdeb sdeb 6,3M mars   4 01:13 ",{}],["poop.webm",{"fg":5,"bold":true}],["                                                                  ",{}]],"58":[["drwxr-xr-x 2 sdeb sdeb 4,0K févr. 17 09:41 ",{}],["presets",{"fg":4,"bold":true}],["                                                                    ",{}]],"59":[["-rwxr-xr-x 1 sdeb sdeb 815K févr. 17 09:41 ",{}],["qt-faststart",{"fg":2,"bold":true}],["                                                               ",{}]],"60":[["-rw-r--r-- 1 sdeb sdeb 2,3K févr. 17 09:51 readme.txt                                                                 ",{}]],"61":[["                                                                                                                      ",{}]],"62":[["[01:13:59] ",{"fg":3,"bold":true}],["sdeb",{"fg":5,"bold":true}],[" ` ",{}],["~/Vidéos/ffmpeg-2.5.4-64bit-static",{"fg":4,"bold":true}],[" ",{}],[">",{"fg":6,"bold":true}],[" exit",{}],["                                                           ",{"fg":3,"bold":true}]],"63":[["                                                                                                                      ",{}]]},"cursor":{"x":0}}]]